<?xml version="1.0" encoding="UTF-8"?>
<!DOCTYPE svg PUBLIC "-//W3C//DTD SVG 1.1//EN" "http://www.w3.org/Graphics/SVG/1.1/DTD/svg11.dtd">
<svg version="1.2" width="210mm" height="297mm" viewBox="0 0 21000 29700" preserveAspectRatio="xMidYMid" fill-rule="evenodd" stroke-width="28.222" stroke-linejoin="round" xmlns="http://www.w3.org/2000/svg" xmlns:ooo="http://xml.openoffice.org/svg/export" xmlns:xlink="http://www.w3.org/1999/xlink" xmlns:presentation="http://sun.com/xmlns/staroffice/presentation" xmlns:smil="http://www.w3.org/2001/SMIL20/" xmlns:anim="urn:oasis:names:tc:opendocument:xmlns:animation:1.0" xml:space="preserve">
 <defs class="ClipPathGroup">
  <clipPath id="presentation_clip_path" clipPathUnits="userSpaceOnUse">
   <rect x="0" y="0" width="21000" height="29700"/>
  </clipPath>
  <clipPath id="presentation_clip_path_shrink" clipPathUnits="userSpaceOnUse">
   <rect x="21" y="29" width="20958" height="29641"/>
  </clipPath>
 </defs>
 <defs class="TextShapeIndex">
  <g ooo:slide="id1" ooo:id-list="id3"/>
 </defs>
 <defs class="EmbeddedBulletChars">
  <g id="bullet-char-template-57356" transform="scale(0.00048828125,-0.00048828125)">
   <path d="M 580,1141 L 1163,571 580,0 -4,571 580,1141 Z"/>
  </g>
  <g id="bullet-char-template-57354" transform="scale(0.00048828125,-0.00048828125)">
   <path d="M 8,1128 L 1137,1128 1137,0 8,0 8,1128 Z"/>
  </g>
  <g id="bullet-char-template-10146" transform="scale(0.00048828125,-0.00048828125)">
   <path d="M 174,0 L 602,739 174,1481 1456,739 174,0 Z M 1358,739 L 309,1346 659,739 1358,739 Z"/>
  </g>
  <g id="bullet-char-template-10132" transform="scale(0.00048828125,-0.00048828125)">
   <path d="M 2015,739 L 1276,0 717,0 1260,543 174,543 174,936 1260,936 717,1481 1274,1481 2015,739 Z"/>
  </g>
  <g id="bullet-char-template-10007" transform="scale(0.00048828125,-0.00048828125)">
   <path d="M 0,-2 C -7,14 -16,27 -25,37 L 356,567 C 262,823 215,952 215,954 215,979 228,992 255,992 264,992 276,990 289,987 310,991 331,999 354,1012 L 381,999 492,748 772,1049 836,1024 860,1049 C 881,1039 901,1025 922,1006 886,937 835,863 770,784 769,783 710,716 594,584 L 774,223 C 774,196 753,168 711,139 L 727,119 C 717,90 699,76 672,76 641,76 570,178 457,381 L 164,-76 C 142,-110 111,-127 72,-127 30,-127 9,-110 8,-76 1,-67 -2,-52 -2,-32 -2,-23 -1,-13 0,-2 Z"/>
  </g>
  <g id="bullet-char-template-10004" transform="scale(0.00048828125,-0.00048828125)">
   <path d="M 285,-33 C 182,-33 111,30 74,156 52,228 41,333 41,471 41,549 55,616 82,672 116,743 169,778 240,778 293,778 328,747 346,684 L 369,508 C 377,444 397,411 428,410 L 1163,1116 C 1174,1127 1196,1133 1229,1133 1271,1133 1292,1118 1292,1087 L 1292,965 C 1292,929 1282,901 1262,881 L 442,47 C 390,-6 338,-33 285,-33 Z"/>
  </g>
  <g id="bullet-char-template-9679" transform="scale(0.00048828125,-0.00048828125)">
   <path d="M 813,0 C 632,0 489,54 383,161 276,268 223,411 223,592 223,773 276,916 383,1023 489,1130 632,1184 813,1184 992,1184 1136,1130 1245,1023 1353,916 1407,772 1407,592 1407,412 1353,268 1245,161 1136,54 992,0 813,0 Z"/>
  </g>
  <g id="bullet-char-template-8226" transform="scale(0.00048828125,-0.00048828125)">
   <path d="M 346,457 C 273,457 209,483 155,535 101,586 74,649 74,723 74,796 101,859 155,911 209,963 273,989 346,989 419,989 480,963 531,910 582,859 608,796 608,723 608,648 583,586 532,535 482,483 420,457 346,457 Z"/>
  </g>
  <g id="bullet-char-template-8211" transform="scale(0.00048828125,-0.00048828125)">
   <path d="M -4,459 L 1135,459 1135,606 -4,606 -4,459 Z"/>
  </g>
  <g id="bullet-char-template-61548" transform="scale(0.00048828125,-0.00048828125)">
   <path d="M 173,740 C 173,903 231,1043 346,1159 462,1274 601,1332 765,1332 928,1332 1067,1274 1183,1159 1299,1043 1357,903 1357,740 1357,577 1299,437 1183,322 1067,206 928,148 765,148 601,148 462,206 346,322 231,437 173,577 173,740 Z"/>
  </g>
 </defs>
 <g>
  <g id="id2" class="Master_Slide">
   <g id="bg-id2" class="Background"/>
   <g id="bo-id2" class="BackgroundObjects"/>
  </g>
 </g>
 <g class="SlideGroup">
  <g>
   <g id="container-id1">
    <g id="id1" class="Slide" clip-path="url(#presentation_clip_path)">
     <g class="Page">
      <g class="Graphic">
       <g id="id3">
        <rect class="BoundingBox" stroke="none" fill="none" x="1000" y="1000" width="9948" height="10001"/>
        <line fill="rgb(15,15,15)" stroke="rgb(15,15,15)" x1="10947" y1="5064" x2="10947" y2="1160"/>
        <line fill="rgb(15,15,15)" stroke="rgb(15,15,15)" x1="9182" y1="5198" x2="10813" y2="5198"/>
        <line fill="rgb(15,15,15)" stroke="rgb(15,15,15)" x1="9049" y1="10813" x2="9049" y2="5332"/>
        <path fill="none" stroke="rgb(15,15,15)" d="M 9049,5332 L 9049,5339 9050,5345 9051,5352 9052,5358 9053,5365 9055,5371 9057,5378 9060,5384 9063,5390 9066,5396 9069,5401 9073,5407 9077,5412 9081,5418 9085,5422 9090,5427 9095,5432 9100,5436 9106,5440 9111,5444 9117,5447 9123,5450 9129,5453 9135,5455 9141,5458 9148,5459 9154,5461 9161,5462 9167,5463 9174,5464 9180,5464 9187,5464 9194,5463 9200,5463 9207,5462 9213,5460 9220,5458 9226,5456 9232,5454 9239,5451 9244,5448 9250,5445 9256,5442 9261,5438 9267,5434 9272,5429 9276,5425 9281,5420 9285,5415 9289,5410 9293,5404 9297,5398 9300,5393 9303,5387 9305,5380 9308,5374 9310,5368 9311,5361 9313,5355 9314,5348 9315,5342 9315,5335 9315,5328 9315,5322 9314,5315 9313,5309 9312,5302 9310,5296 9308,5289 9306,5283 9303,5277 9301,5271 9297,5265 9294,5259 9290,5254 9286,5248 9282,5243 9277,5238 9273,5234 9268,5229 9263,5225 9257,5221 9252,5218 9246,5214 9240,5211 9234,5209 9228,5206 9221,5204 9215,5202 9208,5201 9202,5199 9195,5199 9189,5198 9182,5198 Z"/>
        <path fill="none" stroke="rgb(15,15,15)" d="M 10946,5064 L 10946,5057 10945,5051 10945,5044 10943,5038 10942,5031 10940,5025 10938,5018 10936,5012 10933,5006 10930,5000 10927,4994 10923,4989 10919,4983 10915,4978 10911,4973 10906,4968 10901,4964 10896,4960 10891,4956 10886,4952 10880,4948 10874,4945 10868,4942 10862,4940 10856,4937 10850,4935 10844,4934 10837,4932 10831,4931 10824,4930 10817,4930 10811,4930 10804,4930 10798,4931 10791,4932 10785,4933 10778,4935 10772,4937 10766,4939 10760,4941 10754,4944 10748,4947 10742,4951 10737,4954 10731,4958 10726,4962 10721,4967 10717,4972 10712,4977 10708,4982 10704,4987 10700,4993 10697,4998 10694,5004 10691,5010 10689,5016 10687,5023 10685,5029 10683,5035 10682,5042 10681,5049 10680,5055 10680,5062 10680,5068 10680,5075 10681,5082 10682,5088 10684,5095 10685,5101 10687,5108 10690,5114 10692,5120 10695,5126 10698,5132 10702,5137 10705,5143 10709,5148 10714,5153 10718,5158 10723,5163 10728,5167 10733,5171 10738,5175 10744,5179 10750,5182 10756,5185 10762,5188 10768,5190 10774,5192 10780,5194 10787,5195 10793,5197 10800,5197 10806,5198 10813,5198 Z"/>
        <line fill="rgb(15,15,15)" stroke="rgb(15,15,15)" x1="1000" y1="10840" x2="1000" y2="1187"/>
        <line fill="rgb(15,15,15)" stroke="rgb(15,15,15)" x1="8861" y1="11000" x2="1161" y2="11000"/>
        <line fill="rgb(15,15,15)" stroke="rgb(15,15,15)" x1="1188" y1="1000" x2="10787" y2="1000"/>
        <path fill="none" stroke="rgb(15,15,15)" d="M 10787,1000 L 10779,1000 10771,1001 10763,1002 10755,1003 10748,1005 10740,1007 10732,1009 10725,1012 10718,1015 10711,1019 10704,1023 10697,1027 10691,1032 10684,1037 10678,1042 10673,1047 10667,1053 10662,1059 10657,1065 10652,1072 10648,1079 10644,1086 10641,1093 10638,1100 10635,1107 10632,1115 10630,1123 10629,1130 10627,1138 10627,1146 10626,1154 10626,1162 10626,1170 10627,1178 10628,1186 10630,1194 10631,1201 10634,1209 10636,1216 10639,1224 10643,1231 10646,1238 10650,1245 10655,1251 10659,1258 10664,1264 10670,1270 10675,1276 10681,1281 10687,1286 10694,1291 10700,1295 10707,1299 10714,1303 10721,1306 10729,1309 10736,1312 10744,1314 10752,1316 10759,1318 10767,1319 10775,1320 10783,1320 10791,1320 10799,1319 10807,1319 10815,1317 10822,1316 10830,1314 10838,1311 10845,1309 10852,1306 10860,1302 10867,1298 10873,1294 10880,1290 10886,1285 10892,1280 10898,1274 10904,1268 10909,1263 10914,1256 10918,1250 10923,1243 10927,1236 10930,1229 10934,1222 10936,1215 10939,1207 10941,1199 10943,1192 10944,1184 10945,1176 10946,1168 10946,1160 Z"/>
        <path fill="none" stroke="rgb(15,15,15)" d="M 9048,10813 L 9048,10804 9047,10794 9046,10785 9044,10776 9042,10767 9040,10758 9037,10749 9033,10741 9030,10732 9025,10724 9021,10716 9016,10708 9010,10701 9005,10693 8999,10686 8992,10680 8985,10673 8978,10667 8971,10662 8963,10656 8955,10652 8947,10647 8939,10643 8930,10639 8922,10636 8913,10633 8904,10631 8895,10629 8886,10628 8876,10627 8867,10626 8858,10626 8849,10626 8839,10627 8830,10629 8821,10630 8812,10633 8803,10635 8794,10638 8786,10642 8777,10646 8769,10650 8761,10655 8754,10660 8746,10665 8739,10671 8732,10678 8726,10684 8719,10691 8713,10698 8708,10706 8703,10713 8698,10721 8694,10729 8690,10738 8686,10746 8683,10755 8681,10764 8678,10773 8677,10782 8675,10791 8674,10801 8674,10810 8674,10819 8675,10828 8676,10838 8677,10847 8679,10856 8681,10865 8684,10874 8687,10882 8691,10891 8695,10899 8700,10907 8704,10915 8710,10923 8715,10930 8721,10937 8728,10944 8734,10951 8741,10957 8749,10962 8756,10968 8764,10973 8772,10977 8780,10982 8789,10985 8797,10989 8806,10992 8815,10994 8824,10996 8833,10998 8842,10999 8852,11000 8861,11000 Z"/>
        <path fill="none" stroke="rgb(15,15,15)" d="M 1161,10999 L 1169,10999 1177,10998 1185,10997 1193,10996 1200,10994 1208,10992 1215,10989 1223,10986 1230,10983 1237,10979 1244,10975 1251,10971 1257,10966 1263,10961 1269,10956 1275,10950 1280,10945 1285,10939 1290,10932 1294,10926 1299,10919 1302,10912 1306,10905 1309,10897 1312,10890 1314,10882 1316,10875 1318,10867 1319,10859 1320,10851 1320,10843 1320,10835 1320,10827 1319,10820 1318,10812 1316,10804 1314,10796 1312,10789 1309,10781 1306,10774 1303,10767 1299,10760 1295,10753 1290,10746 1286,10740 1281,10734 1275,10728 1270,10722 1264,10717 1257,10712 1251,10707 1244,10703 1238,10699 1231,10695 1223,10692 1216,10689 1208,10687 1201,10684 1193,10682 1185,10681 1177,10680 1170,10679 1162,10679 1154,10679 1146,10680 1138,10681 1130,10682 1122,10683 1115,10686 1107,10688 1100,10691 1092,10694 1085,10698 1078,10701 1072,10706 1065,10710 1059,10715 1053,10720 1047,10726 1042,10731 1036,10737 1032,10744 1027,10750 1023,10757 1019,10764 1015,10771 1012,10778 1009,10785 1007,10793 1005,10801 1003,10808 1002,10816 1001,10824 1000,10832 1000,10840 Z"/>
        <path fill="none" stroke="rgb(15,15,15)" d="M 1000,1187 L 1000,1196 1001,1206 1002,1215 1004,1224 1006,1233 1008,1242 1011,1251 1015,1260 1019,1268 1023,1277 1028,1285 1033,1293 1038,1300 1044,1308 1050,1315 1057,1321 1064,1328 1071,1334 1078,1339 1086,1345 1094,1349 1102,1354 1111,1358 1120,1361 1128,1365 1137,1367 1146,1370 1156,1371 1165,1373 1174,1374 1184,1374 1193,1374 1202,1373 1212,1372 1221,1371 1230,1369 1239,1367 1248,1364 1257,1361 1265,1357 1274,1353 1282,1348 1290,1343 1298,1338 1305,1332 1312,1326 1319,1320 1325,1313 1331,1306 1337,1298 1343,1291 1348,1283 1352,1275 1356,1266 1360,1258 1363,1249 1366,1240 1369,1231 1371,1222 1372,1213 1373,1203 1374,1194 1374,1185 1374,1175 1373,1166 1372,1157 1370,1147 1368,1138 1365,1129 1362,1120 1358,1112 1354,1103 1350,1095 1345,1087 1340,1079 1334,1072 1328,1065 1322,1058 1315,1051 1308,1045 1301,1039 1294,1033 1286,1028 1278,1023 1269,1019 1261,1015 1252,1012 1243,1009 1234,1006 1225,1004 1216,1002 1207,1001 1197,1000 1188,1000 Z"/>
       </g>
      </g>
     </g>
    </g>
   </g>
  </g>
 </g>
</svg>